<svg width="16" height="16" viewBox="0 0 16 16" fill="none" xmlns="http://www.w3.org/2000/svg">
<path d="M7.99992 1.33301C4.31992 1.33301 1.33325 4.31967 1.33325 7.99967C1.33325 11.6797 4.31992 14.6663 7.99992 14.6663C11.6799 14.6663 14.6666 11.6797 14.6666 7.99967C14.6666 4.31967 11.6799 1.33301 7.99992 1.33301ZM4.39992 7.48634C4.51325 6.69301 4.86659 5.97967 5.41992 5.41967C6.75325 4.09301 8.85325 4.01967 10.2799 5.17967V4.54634C10.2799 4.27301 10.5066 4.04634 10.7799 4.04634C11.0533 4.04634 11.2799 4.27301 11.2799 4.54634V6.32634C11.2799 6.59967 11.0533 6.82634 10.7799 6.82634H8.99992C8.72659 6.82634 8.49992 6.59967 8.49992 6.32634C8.49992 6.05301 8.72659 5.82634 8.99992 5.82634H9.49992C8.46659 5.10634 7.03992 5.20634 6.11992 6.12634C5.71992 6.52634 5.46659 7.04634 5.37992 7.62634C5.34659 7.87301 5.13325 8.05301 4.88659 8.05301C4.85992 8.05301 4.83992 8.05301 4.81325 8.04634C4.55325 8.01301 4.35992 7.75967 4.39992 7.48634ZM10.5799 10.5797C9.86659 11.293 8.93325 11.6463 7.99992 11.6463C7.18659 11.6463 6.37992 11.3597 5.71325 10.8197V11.4463C5.71325 11.7197 5.48659 11.9463 5.21325 11.9463C4.93992 11.9463 4.71325 11.7197 4.71325 11.4463V9.66634C4.71325 9.39301 4.93992 9.16634 5.21325 9.16634H6.99325C7.26659 9.16634 7.49325 9.39301 7.49325 9.66634C7.49325 9.93967 7.26659 10.1663 6.99325 10.1663H6.49325C7.52659 10.8863 8.95325 10.7863 9.87325 9.86634C10.2733 9.46634 10.5266 8.94634 10.6133 8.36634C10.6533 8.09301 10.8999 7.89967 11.1799 7.93967C11.4533 7.97967 11.6399 8.23301 11.6066 8.50634C11.4866 9.31301 11.1333 10.0263 10.5799 10.5797Z" fill="#A6840A"/>
</svg>
